<!DOCTYPE svg PUBLIC "-//W3C//DTD SVG 1.1//EN" "http://www.w3.org/Graphics/SVG/1.1/DTD/svg11.dtd">
<!-- Uploaded to: SVG Repo, www.svgrepo.com, Transformed by: SVG Repo Mixer Tools -->
<svg width="64px" height="64px" viewBox="-9 -9 54.00 54.00" xmlns="http://www.w3.org/2000/svg" xmlns:xlink="http://www.w3.org/1999/xlink" aria-hidden="true" role="img" class="iconify iconify--twemoji" preserveAspectRatio="xMidYMid meet" fill="#c0c8c3" transform="matrix(1, 0, 0, 1, 0, 0)" stroke="#c0c8c3" stroke-width="0.18">
<g id="SVGRepo_bgCarrier" stroke-width="0"/>
<g id="SVGRepo_tracerCarrier" stroke-linecap="round" stroke-linejoin="round"/>
<g id="SVGRepo_iconCarrier">
<path fill="#d8dfdd" d="M33 3c-7-3-15-3-15-3S10 0 3 3C0 18 3 31 18 36c15-5 18-18 15-33z"/>
<path fill="#5dda87" d="M18 33.884C6.412 29.729 1.961 19.831 4.76 4.444C11.063 2.029 17.928 2 18 2c.071 0 6.958.04 13.24 2.444c2.799 15.387-1.652 25.285-13.24 29.44z"/>
<path fill="#3ab670" d="M31.24 4.444C24.958 2.04 18.071 2 18 2v31.884c11.588-4.155 16.039-14.053 13.24-29.44z"/>
</g>
</svg>